<?xml version="1.0" standalone="no"?>
<!DOCTYPE svg PUBLIC "-//W3C//DTD SVG 20010904//EN"
 "http://www.w3.org/TR/2001/REC-SVG-20010904/DTD/svg10.dtd">
<svg version="1.0" xmlns="http://www.w3.org/2000/svg"
 width="310.000000pt" height="310.000000pt" viewBox="0 0 310.000000 310.000000"
 preserveAspectRatio="xMidYMid meet">
<metadata>
Created by potrace 1.11, written by Peter Selinger 2001-2013
</metadata>
<g transform="translate(0.000000,310.000000) scale(0.100000,-0.100000)"
fill="#000000" stroke="none">
<path d="M220 2770 c-130 -4 -142 -6 -120 -19 66 -36 103 -88 115 -161 13 -79
9 -1509 -5 -1559 -11 -43 -40 -80 -90 -113 -24 -16 -9 -17 285 -17 l310 -1
-43 28 c-27 17 -50 43 -65 72 -21 44 -22 54 -22 370 0 308 1 329 22 396 50
158 170 236 302 198 58 -17 96 -56 121 -122 19 -50 20 -78 21 -411 0 -243 -3
-371 -11 -401 -11 -42 -41 -79 -90 -112 -24 -16 -9 -17 285 -17 l309 -1 -47
32 c-79 56 -80 62 -83 448 -3 394 -4 411 -16 470 -41 191 -183 303 -382 302
-201 -2 -333 -102 -423 -322 -7 -17 -10 121 -9 458 1 422 -1 482 -14 483 -83
3 -231 3 -350 -1z"/>
<path d="M2520 2152 c-165 -11 -310 -119 -375 -278 l-25 -59 0 158 0 157 -252
-1 c-241 0 -252 -1 -228 -17 62 -42 92 -79 105 -127 11 -40 13 -197 12 -775
-2 -815 2 -770 -78 -826 -22 -15 -37 -29 -35 -32 4 -3 518 -6 586 -3 9 1 4 8
-13 19 -15 10 -36 28 -46 38 -46 50 -46 52 -49 419 l-2 350 30 -62 c89 -180
259 -261 479 -228 200 30 375 204 437 435 23 84 27 283 9 372 -62 291 -288
480 -555 460z m-5 -176 c142 -66 212 -284 184 -574 -27 -268 -123 -406 -284
-406 -74 1 -124 23 -181 81 -89 90 -112 175 -113 430 -1 248 18 320 110 413
81 82 185 103 284 56z"/>
</g>
</svg>
